<?xml version="1.0" encoding="UTF-8"?>
<!-- Generated by Pixelmator Pro 3.7.1 -->
<svg width="500" height="427" viewBox="0 0 500 427" xmlns="http://www.w3.org/2000/svg">
    <g id="Layer-1">
        <g id="Group">
            <path id="Path" fill="#eb464a" stroke="none" d="M 463.146027 213.65567 C 511.960175 164.833862 511.960175 85.679352 463.146027 36.854065 C 414.341217 -11.967743 335.198547 -11.967743 286.392487 36.857544 L 249.902039 73.350159 L 213.419815 36.857544 C 164.610352 -11.967743 85.471725 -11.967743 36.662251 36.854065 C -12.151299 85.679352 -12.151299 164.833862 36.662251 213.65567 L 249.902039 426.952789 L 463.146027 213.65567 Z"/>
            <path id="path1" fill="#ffffff" stroke="none" d="M 331.925079 181.810059 L 281.473145 181.810059 L 281.473145 131.345398 C 281.473145 127.857574 278.645355 125.030273 275.158386 125.030273 L 224.649872 125.030273 C 221.163513 125.030273 218.336334 127.857574 218.336334 131.345398 L 218.336334 181.810059 L 167.883804 181.810059 C 164.397461 181.810059 161.570282 184.637955 161.570282 188.125198 L 161.570282 238.645905 C 161.570282 242.133698 164.397461 244.962219 167.883804 244.962219 L 218.336334 244.962219 L 218.336334 295.427002 C 218.336334 298.914703 221.163513 301.742004 224.649872 301.742004 L 275.158386 301.742004 C 278.645355 301.742004 281.473145 298.914703 281.473145 295.427002 L 281.473145 244.962219 L 331.925079 244.962219 C 335.412018 244.962219 338.238617 242.133698 338.238617 238.645905 L 338.238617 188.125198 C 338.238617 184.637955 335.412018 181.810059 331.925079 181.810059 Z"/>
        </g>
    </g>
</svg>
